<?xml version="1.0" encoding="utf-8"?>
<!-- Generator: Adobe Illustrator 16.0.0, SVG Export Plug-In . SVG Version: 6.00 Build 0)  -->
<!DOCTYPE svg PUBLIC "-//W3C//DTD SVG 1.1//EN" "http://www.w3.org/Graphics/SVG/1.1/DTD/svg11.dtd">
<svg version="1.1" id="Layer_1" xmlns="http://www.w3.org/2000/svg" xmlns:xlink="http://www.w3.org/1999/xlink" x="0px" y="0px"
	 width="725.91px" height="249.969px" viewBox="0 0 725.91 249.969" enable-background="new 0 0 725.91 249.969"
	 xml:space="preserve">
<g enable-background="new    ">
	<path fill="#929497" d="M250.173,165.7l-36.215-40.014c-0.475-0.594-0.594-1.424,0-2.018l34.079-40.015
		c0.83-1.069,0.119-2.613-1.188-2.613h-18.998c-0.475,0-0.832,0.119-1.188,0.475l-25.411,29.448
		c-0.712,0.832-2.255,0.356-2.255-0.832V83.772c0-1.544-1.307-2.851-2.85-2.851h-13.299c-1.544,0-2.731,1.307-2.731,2.732v81.81
		c0,1.544,1.306,2.731,2.731,2.731h13.299c1.543,0,2.85-1.307,2.85-2.851v-25.052c0-1.188,1.424-1.663,2.255-0.831l24.46,28.14
		c0.238,0.356,0.713,0.594,1.188,0.594h22.204C250.411,168.313,251.124,166.77,250.173,165.7z"/>
	<path fill="#929497" d="M347.54,166.057l-31.704-83.947c-0.237-0.713-0.831-1.069-1.544-1.069h-8.549h-8.549
		c-0.713,0-1.305,0.475-1.543,1.069l-31.703,83.947c-0.475,1.069,0.355,2.257,1.543,2.257h17.692c0.713,0,1.305-0.476,1.543-1.188
		l5.462-15.437c0.238-0.713,0.832-1.188,1.544-1.188h13.892h13.893c0.711,0,1.305,0.475,1.542,1.188l5.463,15.437
		c0.237,0.712,0.831,1.188,1.542,1.188h17.693C347.184,168.313,348.015,167.126,347.54,166.057z M313.58,132.693h-7.837h-7.837
		c-1.188,0-2.018-1.188-1.663-2.257l9.381-27.072c0.119-0.119,0.119-0.356,0.119-0.594l0,0c0,0.238,0,0.356,0.119,0.594
		l9.381,27.072C315.48,131.505,314.649,132.693,313.58,132.693z"/>
	<path fill="#929497" d="M389.808,148.604V83.416c0-1.307-1.069-2.375-2.371-2.375h-14.49c-1.302,0-2.37,1.069-2.37,2.375v67.561
		v14.961c0,1.307,1.068,2.376,2.37,2.376h16.861h28.026c1.307,0,2.37-1.069,2.37-2.376v-12.466c0-1.307-1.063-2.376-2.37-2.376
		h-25.651C390.877,150.977,389.808,149.908,389.808,148.604z"/>
	<path fill="#929497" d="M503.442,89.471l-5.577,14.605c0,0-32.892-13.418-43.225,19.354c-10.21,32.297,23.274,36.098,36.098,29.802
		l1.188,13.298c0,0-26.239,11.4-45.357-4.154s-13.535-49.04,3.683-64C467.586,83.416,495.014,84.366,503.442,89.471z"/>
	<path fill="#929497" d="M517.571,118.563c-11.872,10.092-14.129,22.562-13.892,31.346c0.238,8.433,5.107,16.386,13.061,19.355
		c6.771,2.494,15.792,1.663,24.582-11.873l-0.238,11.873h15.793c0,0,0-19.118,8.547-57.944
		C565.304,111.319,538.115,101.107,517.571,118.563z M531.349,155.372c-2.494,1.307-5.582,0.831-7.482-1.069
		c-2.732-2.731-5.227-8.312-0.594-18.643c8.784-19.354,23.037-12.823,23.037-12.823
		C543.459,145.278,535.976,152.878,531.349,155.372z"/>
	<path fill="#929497" d="M582.522,109.894c0,0-4.152,33.724-9.497,59.489h16.742l6.053-30.397c0,0,6.058-14.248,18.881-13.774
		l3.682-16.741c0,0-13.061-2.732-22.088,13.298l1.188-11.874H582.522z"/>
	<path fill="#929497" d="M668.847,139.461c7.597-7.837,9.973-26.242-11.279-30.279c-10.689-2.018-18.88,2.138-24.344,6.65
		c-5.82,4.75-9.734,11.399-11.754,18.759c-2.731,10.094-3.919,26.242,12.586,33.96c15.792,7.364,32.771-3.325,32.771-3.325
		l-1.307-11.992c0,0-27.664,12.704-29.684-6.886C635.957,146.229,661.246,147.298,668.847,139.461z M650.085,121.649
		c6.177-0.119,7.364,2.969,7.602,4.87c0.119,1.307-0.356,2.491-1.307,3.323c-1.9,1.662-6.77,3.917-18.999,3.204
		C637.381,133.166,641.064,121.887,650.085,121.649z"/>
	<g>
		<path fill="#929497" d="M114.098,140.174v26.239c0,3.92-3.087,7.008-7.005,7.008H89.994c-3.918,0-7.005-3.088-7.005-7.008v-26.478
			l0.475,0.476l15.199,15.317l15.198-15.199L114.098,140.174z"/>
		<path fill="#929497" d="M114.098,83.178v26.479l-0.475-0.475L98.425,93.983L83.227,109.3l-0.356,0.356V83.178
			c0-3.918,3.087-7.005,7.005-7.005h17.217C111.011,76.292,114.098,79.379,114.098,83.178z"/>
		<path fill="#929497" d="M83.464,140.411H56.866c-3.918,0-7.005-3.088-7.005-7.008v-17.215c0-3.918,3.087-7.006,7.005-7.006h26.361
			l-0.356,0.356l-15.198,15.199L83.464,140.411z"/>
		<path fill="#929497" d="M147.227,116.188v17.215c0,3.92-3.206,7.008-7.005,7.008h-26.361l0.356-0.237l15.198-15.2l-15.317-15.317
			l-0.475-0.475h26.48C144.021,109.3,147.227,112.389,147.227,116.188z"/>
		<polygon opacity="0.6" fill="#929497" enable-background="new    " points="98.425,93.983 98.425,112.032 85.601,124.737 
			67.672,124.737 82.87,109.538 83.227,109.3 		"/>
		<polygon opacity="0.6" fill="#929497" enable-background="new    " points="129.416,124.974 114.098,140.174 113.861,140.411 
			98.663,155.729 98.663,137.679 111.486,124.974 		"/>
		<polygon opacity="0.2" fill="#929497" enable-background="new    " points="129.416,124.974 111.486,124.974 98.425,112.032 
			98.425,93.983 113.623,109.3 114.098,109.657 		"/>
		<polygon opacity="0.2" fill="#929497" enable-background="new    " points="98.663,137.679 98.663,155.729 83.464,140.411 
			67.672,124.737 85.601,124.737 		"/>
	</g>
</g>
</svg>
