<?xml version="1.0" encoding="utf-8"?>
<!-- Generator: Adobe Illustrator 16.0.0, SVG Export Plug-In . SVG Version: 6.00 Build 0)  -->
<!DOCTYPE svg PUBLIC "-//W3C//DTD SVG 1.1//EN" "http://www.w3.org/Graphics/SVG/1.1/DTD/svg11.dtd">
<svg version="1.1" id="Layer_1" xmlns="http://www.w3.org/2000/svg" xmlns:xlink="http://www.w3.org/1999/xlink" x="0px" y="0px"
	 width="725.91px" height="249.969px" viewBox="0 0 725.91 249.969" enable-background="new 0 0 725.91 249.969"
	 xml:space="preserve">
<g>
	<g>
		<g>
			<g>
				<path opacity="0.2" fill="#929497" enable-background="new    " d="M97.417,121.92v-2.172c-0.687-0.115-1.486-0.115-2.172-0.115
					c-2.173,0-4.231,0.458-6.176,1.257c-1.943,0.801-3.773,1.944-5.26,3.545c-1.487,1.488-2.629,3.318-3.544,5.262
					c-0.915,1.941-1.258,4.001-1.258,6.172c0,2.631,0.572,5.147,1.83,7.436c1.257,2.288,2.858,4.229,5.031,5.717
					c-0.114-0.114-0.114-0.114-0.229-0.229c-2.516-2.857-4.002-6.632-4.002-10.75c0-2.059,0.343-4.115,1.144-6.06
					c0.801-1.941,1.945-3.658,3.43-5.146c1.487-1.487,3.202-2.63,5.032-3.544C93.3,122.377,95.245,122.034,97.417,121.92
					L97.417,121.92z"/>
				<path opacity="0.2" fill="#929497" enable-background="new    " d="M123.604,115.173v-2.059c-2.401,0-4.688-0.685-6.632-1.943
					C118.687,113.114,120.974,114.602,123.604,115.173L123.604,115.173z M97.76,145.478c0.916,0,1.831-0.229,2.745-0.572
					c0.915-0.343,1.715-0.915,2.402-1.601c0.686-0.688,1.258-1.487,1.6-2.288c0.343-0.915,0.572-1.83,0.687-2.746v-35.104h6.404
					v-0.114c-0.114-0.687-0.229-1.487-0.229-2.173h-8.805v35.219c0,0.915-0.229,1.831-0.687,2.745
					c-0.343,0.916-0.916,1.602-1.601,2.288c-0.686,0.687-1.487,1.145-2.402,1.486c-0.915,0.344-1.829,0.572-2.744,0.572
					c-1.259,0-2.402-0.342-3.431-0.801C93.071,144.22,95.245,145.478,97.76,145.478L97.76,145.478z"/>
				<path opacity="0.6" fill="#929497" enable-background="new    " d="M95.245,128.324c-1.029,0-1.945,0.229-2.858,0.572
					c-0.916,0.343-1.716,0.914-2.402,1.602c-0.687,0.686-1.257,1.484-1.601,2.399c-0.343,0.915-0.571,1.83-0.571,2.857
					c0,2.859,1.714,5.262,4.002,6.521c-0.916-1.259-1.373-2.746-1.373-4.347c0-1.029,0.229-1.945,0.572-2.857
					c0.343-0.916,0.915-1.716,1.601-2.403c0.685-0.686,1.486-1.256,2.401-1.598c0.915-0.344,1.829-0.572,2.858-0.572
					c0.801,0,1.488,0.113,2.173,0.343v-8.921c-0.686-0.114-1.487-0.114-2.173-0.114c-0.114,0-0.229,0-0.343,0h-0.114v6.747
					C96.616,128.438,95.931,128.324,95.245,128.324L95.245,128.324z M116.971,111.057c-2.058-2.288-2.973-4.918-2.973-8.005h-2.401
					C112.168,106.482,114.227,109.341,116.971,111.057L116.971,111.057z"/>
				<path opacity="0.6" fill="#929497" enable-background="new    " d="M123.604,115.059L123.604,115.059l-0.115,6.747
					c-4.458,0-8.575-1.373-12.234-4.002v17.952c0,2.174-0.458,4.232-1.259,6.177c-0.8,1.945-1.944,3.661-3.544,5.26
					c-1.487,1.487-3.202,2.631-5.261,3.546c-1.944,0.799-4.002,1.256-6.174,1.256c-3.431,0-6.518-0.913-9.263-2.857
					c3.202,3.429,7.089,5.146,11.778,5.146c2.173,0,4.231-0.457,6.176-1.258c1.943-0.802,3.773-1.943,5.259-3.544
					c1.487-1.488,2.631-3.314,3.545-5.26c0.8-1.944,1.258-4.004,1.258-6.178v-17.837c3.659,2.629,7.776,3.887,12.236,3.887v-8.805
					C125.319,115.287,124.404,115.173,123.604,115.059L123.604,115.059z"/>
			</g>
		</g>
		<path fill="#929497" d="M97.417,121.806L97.417,121.806L97.417,121.806C97.303,121.92,97.417,121.92,97.417,121.806
			L97.417,121.806L97.417,121.806z M97.417,121.806L97.417,121.806L97.417,121.806C97.303,121.92,97.417,121.92,97.417,121.806
			L97.417,121.806L97.417,121.806z M97.417,121.806L97.417,121.806L97.417,121.806C97.303,121.92,97.417,121.92,97.417,121.806
			L97.417,121.806L97.417,121.806z M97.417,121.806L97.417,121.806L97.417,121.806C97.303,121.92,97.417,121.92,97.417,121.806
			L97.417,121.806L97.417,121.806z M97.417,121.806L97.417,121.806L97.417,121.806C97.303,121.92,97.417,121.92,97.417,121.806
			L97.417,121.806L97.417,121.806z M111.597,103.052L111.597,103.052C111.483,103.166,111.483,103.166,111.597,103.052
			L111.597,103.052L111.597,103.052z M123.489,115.059v0.114l0,0V115.059L123.489,115.059z M123.489,115.059v0.114l0,0V115.059
			L123.489,115.059z M111.483,103.052C111.483,103.166,111.483,103.166,111.483,103.052L111.483,103.052L111.483,103.052
			L111.483,103.052z M97.303,121.92L97.303,121.92C97.303,121.92,97.417,121.92,97.303,121.92L97.303,121.92L97.303,121.92
			L97.303,121.92z M143.616,150.509c-1.944-16.925-4.003-33.85-6.061-50.659c-0.687-5.375-4.574-8.691-10.063-8.691
			c-1.829,0-3.545,0-5.26,0c-2.517-12.579-9.149-19.211-19.44-19.326c-4.689,0-8.806,1.373-12.465,4.231
			c-4.803,3.774-7.205,8.92-7.547,15.209h-5.489c-5.832,0-9.262,3.087-9.948,8.92c-1.601,13.036-3.316,26.071-4.803,39.107
			c-0.572,4.919-1.372,9.835-1.486,14.752c-0.114,7.664,6.175,14.179,13.607,14.179c18.411,0.114,36.937,0.114,55.347,0.114
			c7.09,0,12.694-4.916,13.608-11.892C144.073,154.51,143.844,152.451,143.616,150.509z M102.334,81.325
			c5.49-0.115,9.949,4.23,9.949,9.719h-19.44C92.615,85.898,96.959,81.439,102.334,81.325z M126.12,124.092
			c-4.46,0-8.577-1.258-12.236-3.887v17.837c0,2.174-0.457,4.233-1.258,6.178c-0.8,1.945-1.944,3.771-3.545,5.26
			c-1.601,1.486-3.316,2.628-5.26,3.544c-1.944,0.801-4.002,1.258-6.176,1.258c-4.688,0-8.577-1.717-11.778-5.146l0,0
			c-2.172-1.486-3.888-3.43-5.031-5.717c-1.258-2.288-1.83-4.805-1.83-7.436c0-2.171,0.458-4.229,1.258-6.173
			c0.801-1.944,1.943-3.774,3.544-5.261c1.486-1.485,3.316-2.629,5.26-3.544c1.945-0.8,4.002-1.257,6.176-1.257
			c0.686,0,1.486,0.114,2.172,0.114v2.058l0,0c0.114,0,0.229,0,0.343,0c0.687,0,1.487,0.114,2.173,0.114v8.921
			c-0.687-0.229-1.373-0.344-2.173-0.344c-1.029,0-1.943,0.229-2.858,0.572c-0.915,0.344-1.716,0.914-2.401,1.6
			c-0.686,0.686-1.258,1.487-1.602,2.401c-0.343,0.913-0.572,1.828-0.572,2.857c0,1.602,0.458,2.975,1.373,4.347
			c-0.229-0.113-0.343-0.229-0.572-0.342c0.229,0.113,0.343,0.229,0.572,0.342c0.115,0.115,0.115,0.229,0.229,0.344
			c-0.114-0.115-0.114-0.229-0.229-0.344c1.028,0.572,2.172,0.801,3.431,0.801c0.915,0,1.829-0.229,2.744-0.572
			c0.916-0.342,1.716-0.914,2.402-1.486c0.685-0.687,1.257-1.487,1.601-2.288c0.343-0.914,0.571-1.83,0.687-2.745v-35.219h8.805
			c0,0.801,0.114,1.487,0.229,2.173h2.401c0,3.087,1.03,5.717,2.973,8.005c-0.229-0.115-0.343-0.229-0.458-0.344
			c0.115,0.115,0.343,0.229,0.458,0.344l0,0l0,0l0,0l0,0c1.945,1.258,4.231,1.943,6.632,1.943v1.945
			c0.801,0.229,1.716,0.229,2.516,0.229V124.092z M123.489,115.173C123.604,115.173,123.604,115.173,123.489,115.173v-0.114l0,0
			V115.173z M111.483,103.166L111.483,103.166L111.483,103.166L111.483,103.166L111.483,103.166z M97.303,121.92L97.303,121.92
			C97.303,121.92,97.417,121.92,97.303,121.92L97.303,121.92L97.303,121.92L97.303,121.92z M97.417,121.806L97.417,121.806
			L97.417,121.806C97.303,121.92,97.417,121.92,97.417,121.806L97.417,121.806L97.417,121.806z M111.597,103.052L111.597,103.052
			C111.483,103.166,111.483,103.166,111.597,103.052L111.597,103.052L111.597,103.052z M111.597,103.052L111.597,103.052
			C111.483,103.166,111.483,103.166,111.597,103.052L111.597,103.052L111.597,103.052z M97.417,121.806L97.417,121.806
			L97.417,121.806C97.303,121.92,97.417,121.92,97.417,121.806L97.417,121.806L97.417,121.806z M97.417,121.806L97.417,121.806
			L97.417,121.806C97.303,121.92,97.417,121.92,97.417,121.806L97.417,121.806L97.417,121.806z M97.417,121.806L97.417,121.806
			L97.417,121.806C97.303,121.92,97.417,121.92,97.417,121.806L97.417,121.806L97.417,121.806z"/>
	</g>
	<g enable-background="new    ">
		<g>
			<g>
				<path fill="#929497" d="M632.362,148.563c2.74,2.515,6.057,3.772,9.832,3.658c8.002,0,13.836-5.6,13.836-13.951
					c0-4.229-1.372-7.659-4.003-10.289c-2.627-2.631-5.829-4.003-9.833-4.003c-3.89,0-7.207,1.258-9.947,3.888
					c-2.631,2.517-4.003,6.061-4.003,10.404C628.128,142.617,629.501,146.165,632.362,148.563z M628.014,116.773v6.633
					c2.86-4.803,8.803-7.547,14.866-7.547c5.947,0,11.09,2.058,15.208,6.175c4.118,4.117,6.178,9.493,6.178,16.236
					c0,6.635-2.06,11.895-6.178,16.011c-4.118,4.118-9.146,6.177-15.208,6.177c-6.177,0-12.235-2.517-14.866-7.321v27.218h-8.351
					v-63.467L628.014,116.773L628.014,116.773z M600.342,127.866c-2.632-2.516-6.063-3.888-9.952-3.888
					c-3.885,0-7.316,1.258-10.062,3.888c-2.631,2.517-4.003,5.946-4.003,10.176c0,4.347,1.372,7.779,4.003,10.408
					c2.745,2.628,6.177,3.886,10.062,3.886c3.89,0,7.32-1.258,9.952-3.886c2.745-2.629,4.113-6.175,4.113-10.408
					C604.456,133.813,603.087,130.383,600.342,127.866L600.342,127.866z M574.495,122.034c4.347-4.117,9.608-6.175,15.896-6.175
					c6.291,0,11.667,2.058,15.896,6.175c4.347,4.117,6.52,9.378,6.52,16.008c0,6.635-2.173,12.009-6.635,16.239
					c-4.342,4.118-9.604,6.177-15.78,6.177c-6.172,0-11.549-2.059-15.781-6.177c-4.342-4.116-6.515-9.49-6.515-16.239
					C568.094,131.412,570.153,126.151,574.495,122.034L574.495,122.034z M530.583,159.543h-8.346V93.56h8.346v29.619
					c1.145-2.402,3.089-4.231,5.835-5.375c2.859-1.258,5.604-1.944,8.231-1.944c10.752,0,17.382,6.975,17.267,18.982v24.701h-8.345
					v-24.129c0-6.976-4.118-11.322-10.066-11.322c-3.428,0-6.401,1.029-9.032,3.088c-2.631,2.059-3.89,5.146-3.89,9.375V159.543
					L530.583,159.543z M480.158,141.246c0.114,2.859,1.368,5.489,3.884,7.775c2.518,2.285,5.72,3.43,9.609,3.43
					c7.545,0,11.892-4.001,12.692-9.262c0.458-6.177-4.118-9.834-10.748-11.207l-8.121-2.057
					c-10.291-2.631-15.323-8.12-15.323-16.468c0-5.26,2.059-9.376,6.063-12.694c3.999-3.43,8.803-5.031,14.408-5.031
					c5.829,0,10.748,1.715,14.522,5.146c3.889,3.431,5.715,7.776,5.715,13.38h-8.46c0-6.175-4.919-10.292-11.893-10.292
					c-3.202,0-5.947,0.914-8.35,2.629c-2.288,1.716-3.428,4.002-3.428,6.861c0,4.346,2.971,7.318,8.919,8.805l8.23,2.058
					c12.011,2.974,18.069,9.834,16.811,19.785c-0.572,4.802-2.746,8.688-6.516,11.777c-3.774,3.088-8.579,4.689-14.522,4.689
					c-6.292,0-11.554-1.944-15.78-5.719c-4.233-3.888-6.292-8.347-6.292-13.494L480.158,141.246L480.158,141.246z"/>
				<path fill="#929497" d="M219.204,111.4c2.057,0,3.888-0.687,5.374-2.174c1.487-1.486,2.173-3.316,2.173-5.374
					c0-2.059-0.687-3.888-2.173-5.375c-1.486-1.486-3.317-2.172-5.374-2.172c-2.059,0-3.888,0.801-5.375,2.172
					c-1.487,1.487-2.172,3.316-2.172,5.375c0,2.058,0.685,3.888,2.172,5.374C215.315,110.713,217.145,111.4,219.204,111.4z
					 M392.56,96.077h15.095v29.502l14.979-14.637h17.954l-18.869,18.297l21.157,30.304h-16.581l-14.18-21.043l-4.461,4.348v16.695
					H392.56V96.077L392.56,96.077L392.56,96.077z M232.811,96.077h15.095v29.502l14.98-14.637h17.955l-18.87,18.297l21.156,30.304
					h-16.582L252.365,138.5l-4.46,4.348v16.695h-15.095V96.077L232.811,96.077L232.811,96.077z M211.656,116.315h15.095v43.113
					h-14.98L211.656,116.315L211.656,116.315z M285.984,96.191h48.144l-4.346,13.493h-13.265v49.745h-15.209v-49.745h-15.324V96.191
					L285.984,96.191z M161.684,96.191h47.113l-4.345,13.493h-12.235v49.745h-15.209v-49.745h-15.324V96.191L161.684,96.191z"/>
				<path opacity="0.2" fill="#929497" enable-background="new    " d="M332.183,133.698c0-3.2,0.572-6.403,1.831-9.377
					c1.143-2.973,2.858-5.717,5.031-8.12c2.173-2.401,4.803-4.23,7.662-5.717c2.974-1.373,6.061-2.287,9.263-2.515
					c-0.8,0-1.487-0.114-2.287-0.114c-3.43,0-6.748,0.685-9.835,1.943c-3.202,1.259-5.945,3.202-8.348,5.604
					c-2.401,2.401-4.231,5.259-5.603,8.348c-1.258,3.202-1.944,6.404-1.944,9.834c0,3.429,0.687,6.746,1.944,9.835
					c1.257,3.203,3.202,5.945,5.603,8.346c2.402,2.401,5.26,4.232,8.348,5.605c3.202,1.258,6.405,1.943,9.835,1.943
					c0.686,0,1.601,0,2.287-0.113c-3.202-0.229-6.289-1.145-9.263-2.518c-2.973-1.372-5.488-3.317-7.662-5.717
					c-2.172-2.402-3.888-5.145-5.031-8.118C332.755,140.102,332.183,136.899,332.183,133.698L332.183,133.698z"/>
				<path opacity="0.6" fill="#929497" enable-background="new    " d="M361.801,107.855c-0.686,0-1.601,0-2.287,0.114
					c3.202,0.229,6.289,1.143,9.263,2.515s5.486,3.316,7.659,5.717c2.174,2.403,3.89,5.146,5.033,8.12
					c1.144,2.974,1.83,6.177,1.83,9.377c0,3.201-0.571,6.403-1.83,9.378c-1.144,2.974-2.859,5.716-5.033,8.116
					c-2.173,2.401-4.8,4.232-7.659,5.72c-2.974,1.372-5.947,2.288-9.263,2.517c0.686,0.114,1.601,0.114,2.287,0.114
					c3.43,0,6.748-0.687,9.835-1.944c3.198-1.259,5.944-3.204,8.346-5.605c2.402-2.4,4.232-5.258,5.604-8.346
					c1.259-3.203,1.945-6.406,1.945-9.835c0-3.43-0.687-6.747-1.945-9.834c-1.258-3.202-3.202-5.946-5.604-8.347
					c-2.401-2.402-5.262-4.231-8.346-5.604C368.548,108.54,365.231,107.855,361.801,107.855L361.801,107.855z"/>
				<path fill="#929497" d="M357.799,146.278c-1.716,0-3.317-0.344-4.803-0.915c-1.487-0.687-2.858-1.602-4.117-2.746
					c-1.144-1.143-2.059-2.516-2.744-4.117c-0.686-1.487-0.916-3.086-0.916-4.802s0.344-3.315,0.916-4.802
					c0.685-1.487,1.6-2.86,2.744-4.118c1.144-1.143,2.515-2.058,4.117-2.744c1.486-0.687,3.087-0.915,4.803-0.915
					c1.715,0,3.316,0.343,4.802,0.915c1.486,0.686,2.858,1.601,4.117,2.744c1.144,1.145,2.059,2.517,2.744,4.118
					c0.688,1.486,0.916,3.086,0.916,4.802s-0.344,3.314-0.916,4.802c-0.686,1.487-1.601,2.859-2.744,4.117
					c-1.144,1.145-2.516,2.06-4.117,2.746C361.001,145.935,359.399,146.278,357.799,146.278z M357.799,107.855
					c-3.432,0-6.748,0.685-9.835,1.943c-3.087,1.259-5.946,3.202-8.348,5.604c-2.401,2.401-4.346,5.259-5.603,8.348
					c-1.258,3.202-1.945,6.404-1.945,9.834c0,3.429,0.687,6.746,1.945,9.835c1.257,3.203,3.202,5.945,5.603,8.346
					c2.402,2.401,5.261,4.232,8.348,5.605c3.087,1.371,6.403,1.943,9.835,1.943c3.43,0,6.747-0.686,9.834-1.943
					c3.202-1.259,5.943-3.204,8.346-5.605c2.402-2.4,4.231-5.258,5.604-8.346c1.259-3.203,1.944-6.406,1.944-9.835
					c0-3.43-0.686-6.747-1.944-9.834c-1.258-3.203-3.202-5.947-5.604-8.348c-2.402-2.403-5.257-4.231-8.346-5.604
					C364.546,108.54,361.229,107.855,357.799,107.855L357.799,107.855z"/>
			</g>
		</g>
	</g>
</g>
</svg>
